<svg id="Layer_1" data-name="Layer 1" xmlns="http://www.w3.org/2000/svg" xmlns:xlink="http://www.w3.org/1999/xlink" viewBox="0 0 986.02 493.98">
  <defs>
    <clipPath id="clip-path" transform="translate(-95.65 -149.1)">
      <path d="M465,429.69h-9.37L478,328.13a45.44,45.44,0,0,0,1.37-9,8,8,0,0,0-1.61-5.27,5.45,5.45,0,0,0-4.44-2q-8.69,0-20.61,19.34-4.69,7.52-10,18T433.17,369q-4.2,9.33-8.5,20.56t-7.62,21.78l-5.18,16.5-0.59,1.86H403l0.59-2q6.45-22.27,14.55-62,3.12-14.94,5.47-28.12,3.22-17.67,3.22-24.61a24.86,24.86,0,0,0-.78-6.49,9.92,9.92,0,0,0-2.2-4.35,4.53,4.53,0,0,0-3.37-1.46q-7.91,0-13.28,19.53a172.7,172.7,0,0,0-5.57,27.05L394,342a106,106,0,0,1,6.05-22.51q4.1-10.3,9.28-16t10.45-5.71q6.25,0,9.81,6.74t3.56,18.65a138.37,138.37,0,0,1-1.86,21.48q-1.27,8-2.73,15.92l-5,24,0.88-2.15q8.5-20.7,16.26-35.84a196.16,196.16,0,0,1,14.5-24.51q12.11-16.5,22.46-16.5a10.17,10.17,0,0,1,7.86,3.37,12.46,12.46,0,0,1,3.08,8.74A59.1,59.1,0,0,1,487,329.79ZM543.71,372l-9.18,35.74a40.54,40.54,0,0,0-1.46,9.18,9.8,9.8,0,0,0,1.27,5.08,3.65,3.65,0,0,0,3.13,2.15q2.83,0,9.38-6.93l1.37,1.37-1.07,1.27a88.53,88.53,0,0,1-8,8.35q-2.78,2.39-4.83,2.39-3.13,0-5.42-3.27a12.84,12.84,0,0,1-2.29-7.57q0-3.12,2.34-14.16l0.78-3.71A72.48,72.48,0,0,1,520.08,418q-10.16,12.89-19.43,12.89a10.68,10.68,0,0,1-8.79-4q-3.22-4-3.22-10.74,0-9.18,5.22-19.24a53.22,53.22,0,0,1,13-16.55q7.76-6.49,15.09-6.49,7.71,0,11.52,5.66l1.07-3.71Zm-11.23,12.5a11.31,11.31,0,0,0-4-5.81,10.34,10.34,0,0,0-6.4-2.1q-4.3,0-9.08,4a39.22,39.22,0,0,0-8.79,11,63.78,63.78,0,0,0-5.22,12.3,39,39,0,0,0-2.1,11.13,13.86,13.86,0,0,0,1.9,7.81,6.15,6.15,0,0,0,5.42,2.83q4.49,0,9.38-4.2a50.65,50.65,0,0,0,9.67-12,45.16,45.16,0,0,0,4.59-9q1.66-4.49,3.71-12.5Z" style="fill: none"/>
    </clipPath>
  </defs>
  <title>Untitled-2</title>
  <g style="clip-path: url(#clip-path)">
    <rect x="0.5" y="0.5" width="985.02" height="492.98" style="stroke: #000;stroke-miterlimit: 10"/>
  </g>
  <path d="M396.67,345.67l3-13.33,4.67-15.67s3.88-11.09,9.67-15,14.57-4.9,16.67,13c0,0-4.33,40.78-6.67,49.06s-10.33,45.94-10.33,45.94l-7,22.67,15-43s-0.57,0,6.67-12.77l13-28.57s13-26.17,22.68-34,25.33-11.33,19.33,17.67l-12.67,53-10,47.67s-10.35,3.2,11.67,0,19.78-2,22.67-6.74a13.91,13.91,0,0,1-1.93-3.85,15.93,15.93,0,0,1-.74-6.74c0.67-6.33,4.33-15.67,6.33-20,0,0,8.16-17.55,24.75-21.11a33.7,33.7,0,0,1,4.39,2.67c2.89,2.05,6.39,5.2,7.86,9.11,0,0-6.56-18.73-25.94-7.53s-19.85,52.53-12.79,49.2c0,0,11.05,7.81,28.39-16.93l18.34-43.87S530.67,399.67,530,412s1.33,16,4,16l18.67-14.33" transform="translate(-95.65 -149.1)" style="fill: none;stroke: lime;stroke-miterlimit: 10;stroke-width: 14px"/>
</svg>
